<?xml version="1.0" encoding="UTF-8" standalone="no"?>
<svg xmlns="http://www.w3.org/2000/svg" version="1.2" baseProfile="tiny" viewBox="0.00 0.00 464.00 469.00">
<path fill="#ffffff" d="
  M 456.04 233.40
  A 224.63 224.63 0.0 0 1 231.41 458.03
  A 224.63 224.63 0.0 0 1 6.78 233.40
  A 224.63 224.63 0.0 0 1 231.41 8.77
  A 224.63 224.63 0.0 0 1 456.04 233.40
  Z
  M 225.16 23.43
  C 202.43 23.98 178.99 28.55 157.82 36.64
  Q 157.37 36.81 157.55 37.26
  L 183.27 101.69
  Q 183.55 102.39 183.97 101.77
  L 225.40 41.38
  A 2.04 1.98 63.0 0 0 225.75 40.24
  L 225.75 24.00
  A 0.58 0.57 -0.5 0 0 225.16 23.43
  Z
  M 304.70 36.52
  C 283.28 28.54 260.10 23.78 237.08 23.45
  Q 236.50 23.44 236.50 24.02
  L 236.50 38.31
  A 2.34 2.28 -63.1 0 0 236.91 39.63
  L 279.00 100.30
  A 0.41 0.41 0.0 0 0 279.71 100.22
  L 304.92 37.01
  Q 305.06 36.65 304.70 36.52
  Z
  M 148.31 41.50
  Q 147.97 40.63 147.11 41.00
  Q 116.67 54.40 91.10 77.14
  Q 88.81 79.18 86.75 81.40
  Q 86.39 81.79 86.77 82.17
  L 152.06 147.46
  A 0.39 0.39 0.0 0 0 152.66 147.41
  L 176.35 112.88
  A 0.96 0.95 52.0 0 0 176.45 112.00
  L 148.31 41.50
  Z
  M 314.35 40.77
  L 286.50 110.58
  A 0.70 0.69 38.4 0 0 286.58 111.24
  L 311.06 146.53
  A 0.34 0.34 0.0 0 0 311.58 146.58
  L 376.20 81.96
  Q 376.52 81.63 376.19 81.32
  Q 349.79 56.24 316.32 41.22
  Q 315.50 40.86 314.61 40.64
  Q 314.42 40.59 314.35 40.77
  Z
  M 236.50 125.00
  L 236.50 149.04
  Q 236.50 149.64 237.10 149.69
  Q 265.36 152.11 286.61 170.75
  Q 287.04 171.12 287.43 170.72
  L 303.52 154.64
  A 0.38 0.37 50.2 0 0 303.56 154.16
  L 232.06 51.09
  A 0.35 0.34 44.7 0 0 231.49 51.09
  L 160.21 154.98
  Q 159.95 155.36 160.28 155.68
  L 174.55 169.95
  Q 174.95 170.35 175.37 169.98
  Q 196.85 151.65 225.21 149.56
  Q 225.75 149.52 225.75 148.97
  L 225.75 124.87
  Q 225.75 124.25 226.37 124.25
  L 235.75 124.25
  Q 236.50 124.25 236.50 125.00
  Z
  M 78.87 89.19
  C 62.73 105.80 49.46 125.98 40.08 146.71
  A 0.34 0.34 0.0 0 0 40.26 147.17
  L 127.46 183.03
  Q 128.06 183.28 128.42 182.75
  L 146.40 156.53
  A 0.25 0.25 0.0 0 0 146.37 156.21
  L 79.35 89.19
  Q 79.11 88.95 78.87 89.19
  Z
  M 338.28 184.83
  L 423.46 149.80
  Q 424.01 149.57 423.77 149.02
  Q 409.18 115.95 384.14 89.32
  Q 383.72 88.88 383.29 89.31
  L 317.60 155.00
  Q 317.21 155.40 317.52 155.85
  L 337.45 184.58
  A 0.70 0.69 61.3 0 0 338.28 184.83
  Z
  M 22.12 215.04
  Q 21.47 222.38 21.44 228.40
  Q 21.44 229.00 22.04 229.00
  L 96.15 229.00
  Q 96.68 229.00 96.98 228.56
  L 121.63 192.64
  A 0.39 0.39 0.0 0 0 121.46 192.06
  L 36.44 157.10
  Q 35.78 156.83 35.52 157.50
  Q 24.75 185.18 22.12 215.04
  Z
  M 441.44 228.54
  Q 440.58 193.04 428.26 160.03
  Q 428.03 159.42 427.43 159.66
  L 344.42 193.80
  A 0.39 0.39 0.0 0 0 344.25 194.39
  L 367.97 228.58
  Q 368.26 229.00 368.78 229.00
  L 440.99 229.00
  Q 441.45 229.00 441.44 228.54
  Z
  M 304.34 233.72
  A 73.82 73.82 0.0 0 0 230.52 159.90
  A 73.82 73.82 0.0 0 0 156.70 233.72
  A 73.82 73.82 0.0 0 0 230.52 307.54
  A 73.82 73.82 0.0 0 0 304.34 233.72
  Z
  M 339.50 238.75
  L 315.25 238.75
  Q 314.68 238.75 314.64 239.32
  Q 312.61 266.82 294.99 288.02
  Q 294.60 288.50 295.04 288.94
  L 309.94 303.84
  A 0.40 0.40 0.0 0 0 310.55 303.78
  L 358.07 234.10
  Q 358.53 233.42 358.07 232.75
  L 309.92 163.34
  A 0.40 0.39 50.2 0 0 309.32 163.28
  L 294.54 178.06
  Q 294.16 178.45 294.51 178.87
  Q 312.31 199.87 314.58 227.42
  Q 314.63 228.00 315.21 228.00
  L 339.75 228.00
  Q 340.25 228.00 340.25 228.50
  L 340.25 238.00
  Q 340.25 238.75 339.50 238.75
  Z
  M 122.75 228.00
  L 145.81 228.00
  Q 146.42 228.00 146.47 227.39
  Q 148.82 199.05 167.25 178.04
  Q 167.69 177.54 167.22 177.07
  L 154.44 164.28
  Q 154.08 163.92 153.79 164.34
  L 106.59 233.14
  A 0.50 0.50 0.0 0 0 106.59 233.70
  L 153.23 302.85
  A 0.34 0.34 0.0 0 0 153.75 302.90
  L 166.86 289.79
  Q 167.24 289.42 166.89 289.01
  Q 148.30 267.15 146.45 239.36
  Q 146.41 238.75 145.80 238.75
  L 122.38 238.75
  A 0.38 0.37 0.0 0 1 122.00 238.38
  L 122.00 228.75
  Q 122.00 228.00 122.75 228.00
  Z
  M 21.42 238.36
  C 21.85 261.53 26.32 284.65 34.38 306.27
  A 0.28 0.27 68.4 0 0 34.74 306.43
  L 119.54 272.51
  A 0.37 0.37 0.0 0 0 119.71 271.96
  L 96.99 238.27
  Q 96.64 237.75 96.02 237.75
  L 22.02 237.75
  Q 21.41 237.75 21.42 238.36
  Z
  M 427.06 309.93
  C 436.08 286.98 440.77 262.89 441.46 238.26
  Q 441.48 237.75 440.96 237.75
  L 368.84 237.75
  Q 368.31 237.75 368.02 238.19
  L 342.96 274.91
  A 0.26 0.26 0.0 0 0 343.08 275.30
  L 426.52 310.16
  Q 426.90 310.32 427.06 309.93
  Z
  M 38.56 315.79
  Q 38.21 315.93 38.36 316.28
  Q 51.79 347.32 74.76 373.23
  Q 76.63 375.34 78.58 377.24
  Q 79.00 377.65 79.41 377.24
  L 145.46 311.19
  Q 145.89 310.76 145.55 310.25
  L 126.02 281.30
  Q 125.76 280.91 125.32 281.09
  L 38.56 315.79
  Z
  M 422.73 320.14
  A 0.55 0.55 0.0 0 0 422.44 319.40
  L 337.56 283.94
  A 0.79 0.79 0.0 0 0 336.60 284.23
  L 318.11 311.36
  A 0.57 0.55 -50.9 0 0 318.17 312.07
  L 383.44 377.34
  Q 383.86 377.76 384.27 377.33
  Q 408.21 351.86 422.73 320.14
  Z
  M 236.00 341.75
  L 226.50 341.75
  A 0.50 0.50 0.0 0 1 226.00 341.25
  L 226.00 318.50
  Q 226.00 317.90 225.41 317.86
  Q 196.61 315.99 174.50 296.73
  Q 174.03 296.32 173.59 296.77
  L 159.44 310.91
  Q 158.98 311.37 159.34 311.90
  L 231.46 418.81
  A 0.38 0.38 0.0 0 0 232.09 418.81
  L 304.38 312.83
  A 0.53 0.52 -50.8 0 0 304.32 312.17
  L 288.19 296.04
  Q 287.78 295.62 287.34 296.02
  Q 265.71 315.32 237.24 317.75
  Q 236.75 317.79 236.75 318.28
  L 236.75 341.00
  Q 236.75 341.75 236.00 341.75
  Z
  M 147.11 425.33
  L 176.21 356.48
  A 0.96 0.94 39.8 0 0 176.12 355.58
  L 151.68 319.34
  A 0.40 0.40 0.0 0 0 151.07 319.28
  L 86.03 384.33
  A 0.38 0.38 0.0 0 0 86.03 384.87
  Q 112.72 410.45 146.53 425.56
  A 0.44 0.43 -66.0 0 0 147.11 425.33
  Z
  M 286.65 358.29
  L 315.07 425.53
  A 0.49 0.49 0.0 0 0 315.71 425.79
  Q 349.41 410.94 376.46 385.21
  Q 376.92 384.77 376.47 384.32
  L 312.67 320.52
  Q 312.19 320.03 311.80 320.60
  L 286.75 357.33
  Q 286.44 357.79 286.65 358.29
  Z
  M 157.04 429.86
  C 178.79 438.18 202.23 442.81 225.65 443.40
  Q 226.25 443.42 226.25 442.81
  L 226.25 430.52
  Q 226.25 429.88 225.90 429.36
  L 183.78 366.91
  A 0.36 0.35 39.2 0 0 183.16 366.97
  L 156.81 429.31
  A 0.42 0.41 -68.2 0 0 157.04 429.86
  Z
  M 237.81 443.38
  C 260.87 442.68 283.47 438.26 305.12 430.12
  Q 305.56 429.95 305.37 429.52
  L 279.72 368.81
  A 0.43 0.43 0.0 0 0 278.97 368.74
  L 237.60 429.38
  Q 237.25 429.90 237.25 430.52
  L 237.25 442.83
  Q 237.25 443.39 237.81 443.38
  Z"
/>
<path fill="#ffffff" d="
  M 230.98 193.73
  C 256.23 193.15 281.79 214.10 296.80 232.96
  Q 297.18 233.44 296.79 233.93
  C 280.08 254.34 251.66 276.82 223.72 271.81
  C 201.52 267.83 180.36 250.90 165.92 233.73
  A 0.51 0.50 -45.5 0 1 165.92 233.08
  C 181.14 214.78 206.03 194.31 230.98 193.73
  Z
  M 248.97 205.68
  Q 232.26 198.80 215.33 205.52
  C 200.86 211.26 188.15 221.50 177.23 233.22
  Q 177.07 233.39 177.23 233.57
  C 188.21 245.31 202.37 256.39 217.67 261.63
  Q 233.16 266.95 248.85 260.67
  C 262.80 255.09 275.48 244.86 285.62 233.85
  Q 286.05 233.39 285.62 232.92
  C 275.07 221.36 262.78 211.38 248.97 205.68
  Z"
/>
<path fill="#ffffff" d="
  M 231.4152 259.0400
  A 25.90 25.50 89.9 0 1 205.8700 233.1845
  A 25.90 25.50 89.9 0 1 231.3248 207.2400
  A 25.90 25.50 89.9 0 1 256.8700 233.0955
  A 25.90 25.50 89.9 0 1 231.4152 259.0400
  Z
  M 231.4309 250.5899
  A 17.44 17.07 89.8 0 0 248.4399 233.0904
  A 17.44 17.07 89.8 0 0 231.3091 215.7101
  A 17.44 17.07 89.8 0 0 214.3001 233.2096
  A 17.44 17.07 89.8 0 0 231.4309 250.5899
  Z"
/>
</svg>
